<?xml version="1.0" standalone="no"?>
<!DOCTYPE svg PUBLIC "-//W3C//DTD SVG 20010904//EN"
 "http://www.w3.org/TR/2001/REC-SVG-20010904/DTD/svg10.dtd">
<svg version="1.0" xmlns="http://www.w3.org/2000/svg"
 width="506.000000pt" height="338.000000pt" viewBox="0 0 506.000000 338.000000"
 preserveAspectRatio="xMidYMid meet">

<g transform="translate(0.000000,338.000000) scale(0.100000,-0.100000)"
fill="#000000" stroke="none">
<path d="M2829 2395 c-113 -36 -197 -126 -219 -232 -32 -150 34 -289 166 -354
56 -28 76 -32 139 -32 98 0 187 41 245 114 51 65 65 108 64 204 0 95 -25 157
-89 220 -79 79 -206 112 -306 80z m158 -106 c40 -15 92 -67 114 -114 78 -168
-99 -352 -266 -276 -118 53 -159 195 -89 308 49 79 154 115 241 82z"/>
<path d="M3557 2400 c-97 -25 -174 -89 -215 -179 -34 -74 -35 -183 -3 -257 26
-58 90 -128 144 -155 82 -43 210 -44 290 -3 49 26 107 86 135 138 24 45 27 62
27 146 0 106 -15 147 -81 220 -68 75 -199 114 -297 90z m185 -135 c63 -45 90
-104 86 -187 -3 -56 -9 -74 -35 -110 -39 -55 -101 -88 -162 -88 -180 1 -274
218 -152 353 49 54 83 68 158 64 50 -2 71 -9 105 -32z"/>
<path d="M2140 2089 l0 -301 128 3 c146 5 181 18 220 87 24 44 30 119 11 155
-17 32 -61 77 -76 77 -19 0 -16 14 7 35 45 41 49 128 8 180 -37 47 -91 65
-200 65 l-98 0 0 -301z m183 190 c29 -16 37 -28 37 -60 0 -33 -25 -55 -72 -64
l-38 -7 0 71 c0 70 1 71 26 71 14 0 35 -5 47 -11z m26 -230 c31 -11 61 -52 61
-83 0 -8 -10 -26 -22 -41 -18 -20 -36 -26 -85 -32 l-63 -6 0 87 0 86 39 0 c21
0 52 -5 70 -11z"/>
<path d="M4060 2090 l0 -300 55 0 55 0 0 130 c0 72 3 130 8 130 4 -1 47 -59
96 -130 l89 -130 65 0 64 0 -17 28 c-10 15 -58 85 -107 155 -49 70 -91 134
-94 142 -4 9 31 62 86 132 51 65 97 124 103 131 7 9 -5 12 -57 12 l-66 0 -78
-99 c-42 -55 -80 -100 -84 -100 -5 -1 -8 44 -8 99 l0 100 -55 0 -55 0 0 -300z"/>
<path d="M2183 1650 c-46 -28 -66 -72 -60 -133 4 -46 10 -55 59 -101 29 -28
75 -68 102 -90 54 -43 86 -90 86 -124 0 -58 -56 -112 -116 -112 -34 0 -84 31
-108 68 -17 26 -23 29 -43 19 -13 -5 -23 -14 -23 -19 0 -17 76 -92 107 -105
103 -43 226 22 240 126 8 59 -24 118 -97 181 -131 114 -150 135 -156 167 -5
27 -1 37 24 63 43 43 89 41 140 -5 37 -32 40 -33 61 -19 l23 16 -28 29 c-57
60 -149 77 -211 39z"/>
<path d="M3130 1661 c-90 -29 -165 -96 -203 -180 -31 -67 -30 -188 2 -258 26
-59 87 -120 153 -154 64 -33 176 -38 249 -10 75 29 141 88 176 159 24 48 28
69 28 137 -1 94 -22 149 -81 215 -58 64 -123 93 -219 96 -44 2 -91 0 -105 -5z
m190 -62 c248 -112 193 -478 -76 -506 -85 -9 -140 12 -204 76 -62 62 -80 106
-80 192 0 139 120 259 260 259 34 0 72 -8 100 -21z"/>
<path d="M2502 1633 c3 -27 5 -28 71 -31 l67 -3 0 -274 0 -275 30 0 30 0 0
275 0 275 65 0 65 0 0 30 0 30 -166 0 -165 0 3 -27z"/>
<path d="M3670 1356 l0 -307 28 3 27 3 3 138 c3 181 6 181 149 -3 99 -128 111
-139 141 -140 17 0 32 2 32 5 0 3 -47 64 -105 137 -58 73 -105 136 -105 139 0
4 25 9 55 11 59 5 94 24 129 71 27 37 28 120 1 166 -34 57 -78 73 -225 79
l-130 5 0 -307z m286 210 c45 -45 47 -92 5 -138 -29 -33 -31 -33 -130 -36
l-101 -4 0 106 0 106 96 0 c96 0 96 0 130 -34z"/>
<path d="M4180 1355 l0 -305 170 0 170 0 0 30 0 30 -140 0 -140 0 0 120 0 120
140 0 140 0 0 30 0 30 -140 0 -140 0 0 95 0 95 145 0 145 0 0 30 0 30 -175 0
-175 0 0 -305z"/>
<path d="M928 1260 l504 -5 24 -28 c31 -37 33 -103 3 -141 l-20 -26 -505 0
c-336 0 -504 -3 -504 -10 0 -7 239 -10 731 -8 l731 3 24 28 c43 50 29 162 -23
186 -17 8 -234 10 -746 9 l-722 -3 503 -5z"/>
</g>
</svg>
